<svg width="50" height="38" viewBox="0 0 50 38" fill="none" xmlns="http://www.w3.org/2000/svg">
<path d="M49.7132 36.1598C49.9256 35.756 50.0231 35.3018 49.9954 34.8464C49.9676 34.391 49.8155 33.952 49.5557 33.577L27.0562 1.07259C26.8251 0.741439 26.5175 0.470998 26.1595 0.284257C25.8015 0.0975167 25.4037 0 24.9999 0C24.5962 0 24.1984 0.0975167 23.8404 0.284257C23.4824 0.470998 23.1748 0.741439 22.9437 1.07259L0.444153 33.577C0.184639 33.9521 0.0326718 34.3911 0.00470734 34.8464C-0.0232571 35.3017 0.0738431 35.7559 0.2855 36.16C0.497156 36.5641 0.815306 36.9025 1.20549 37.1387C1.59567 37.3749 2.04303 37.4998 2.49911 37.5L47.4983 37.5C47.9546 37.5001 48.4022 37.3752 48.7927 37.139C49.1831 36.9027 49.5015 36.5641 49.7132 36.1598ZM11.0882 32.4993C9.47499 32.4993 8.5256 30.6875 9.44375 29.3611L23.3542 9.26421C24.1495 8.11524 25.8479 8.11524 26.6432 9.26421L40.5536 29.361C41.4718 30.6875 40.5224 32.4993 38.9091 32.4993L11.0882 32.4993Z" fill="#26B08F"/>
</svg>
