<svg width="51" height="51" viewBox="0 0 51 51" fill="none" xmlns="http://www.w3.org/2000/svg">
<path d="M25.9669 17.6267C21.3764 17.6267 17.6302 21.3729 17.6302 25.9634C17.6302 30.5539 21.3764 34.3002 25.9669 34.3002C30.5574 34.3002 34.3036 30.5539 34.3036 25.9634C34.3036 21.3729 30.5574 17.6267 25.9669 17.6267ZM50.9708 25.9634C50.9708 22.5112 51.0021 19.0902 50.8082 15.6442C50.6144 11.6415 49.7013 8.08919 46.7743 5.16226C43.8412 2.22909 40.2951 1.32224 36.2924 1.12836C32.8402 0.934487 29.4192 0.965758 25.9732 0.965758C22.5209 0.965758 19.0999 0.934487 15.6539 1.12836C11.6513 1.32224 8.09892 2.23534 5.172 5.16226C2.23882 8.09544 1.33198 11.6415 1.1381 15.6442C0.944222 19.0964 0.975493 22.5174 0.975493 25.9634C0.975493 29.4094 0.944222 32.8367 1.1381 36.2827C1.33198 40.2853 2.24508 43.8377 5.172 46.7646C8.10518 49.6978 11.6513 50.6046 15.6539 50.7985C19.1062 50.9924 22.5272 50.9611 25.9732 50.9611C29.4254 50.9611 32.8464 50.9924 36.2924 50.7985C40.2951 50.6046 43.8474 49.6915 46.7743 46.7646C49.7075 43.8314 50.6144 40.2853 50.8082 36.2827C51.0084 32.8367 50.9708 29.4157 50.9708 25.9634V25.9634ZM25.9669 38.7906C18.8685 38.7906 13.1397 33.0618 13.1397 25.9634C13.1397 18.865 18.8685 13.1363 25.9669 13.1363C33.0653 13.1363 38.7941 18.865 38.7941 25.9634C38.7941 33.0618 33.0653 38.7906 25.9669 38.7906ZM39.3194 15.6066C37.6621 15.6066 36.3237 14.2682 36.3237 12.6109C36.3237 10.9536 37.6621 9.61519 39.3194 9.61519C40.9768 9.61519 42.3152 10.9536 42.3152 12.6109C42.3156 13.0045 42.2385 13.3942 42.0881 13.7579C41.9377 14.1216 41.7171 14.452 41.4388 14.7303C41.1606 15.0086 40.8301 15.2292 40.4664 15.3796C40.1028 15.53 39.713 15.6071 39.3194 15.6066V15.6066Z" fill="#26B08F"/>
</svg>
