<svg width="51" height="51" viewBox="0 0 51 51" fill="none" xmlns="http://www.w3.org/2000/svg">
<path d="M9.81669 0.0249939C4.42848 0.0249939 0.0185547 4.43482 0.0185547 9.82313V40.2285C0.0185547 45.6167 4.42838 50.025 9.81669 50.025H40.222C45.6103 50.025 50.0186 45.6167 50.0186 40.2285V9.82313C50.0186 4.43492 45.6103 0.0249939 40.222 0.0249939H9.81669ZM12.2811 8.276C14.8646 8.276 16.4559 9.97204 16.5051 12.2015C16.5051 14.3817 14.8645 16.1254 12.2311 16.1254H12.1826C9.64826 16.1254 8.0102 14.3818 8.0102 12.2015C8.0102 9.97209 9.69783 8.276 12.281 8.276H12.2811ZM34.5448 18.6961C39.5134 18.6961 43.2381 21.9436 43.2381 28.9223V41.9505H35.6871V29.7958C35.6871 26.7415 34.5943 24.6577 31.8617 24.6577C29.7756 24.6577 28.5321 26.0622 27.9862 27.419C27.7867 27.9044 27.7377 28.5823 27.7377 29.2614V41.9505H20.1868C20.1868 41.9505 20.2859 21.3608 20.1868 19.2289H27.7393V22.4465C28.7427 20.8983 30.5376 18.696 34.5448 18.696V18.6961ZM8.45559 19.2305H16.0065V41.9506H8.45559V19.2305V19.2305Z" fill="#26B08F"/>
</svg>
